<svg xmlns="http://www.w3.org/2000/svg" viewBox="0 0 64 64" fill="none">
  <defs>
    <linearGradient id="dx-bg" x1="0" y1="0" x2="1" y2="1">
      <stop offset="0%" stop-color="#2d1b69"/>
      <stop offset="35%" stop-color="#1a0f3d"/>
      <stop offset="70%" stop-color="#0a0719"/>
      <stop offset="100%" stop-color="#03020a"/>
    </linearGradient>
    <linearGradient id="dx-mark" x1="0.05" y1="0.05" x2="0.95" y2="0.95">
      <stop offset="0%" stop-color="#fdfaff"/>
      <stop offset="25%" stop-color="#d4c4fd"/>
      <stop offset="55%" stop-color="#9b6cf6"/>
      <stop offset="85%" stop-color="#5b9efc"/>
      <stop offset="100%" stop-color="#22d3ee"/>
    </linearGradient>
    <linearGradient id="dx-shine" x1="0" y1="0" x2="0" y2="1">
      <stop offset="0%" stop-color="#ffffff" stop-opacity="0.28"/>
      <stop offset="50%" stop-color="#ffffff" stop-opacity="0.06"/>
      <stop offset="100%" stop-color="#ffffff" stop-opacity="0"/>
    </linearGradient>
    <radialGradient id="dx-glow-a" cx="0.22" cy="0.22" r="0.6">
      <stop offset="0%" stop-color="#8b5cf6" stop-opacity="0.6"/>
      <stop offset="100%" stop-color="#8b5cf6" stop-opacity="0"/>
    </radialGradient>
    <radialGradient id="dx-glow-b" cx="0.85" cy="0.82" r="0.45">
      <stop offset="0%" stop-color="#22d3ee" stop-opacity="0.32"/>
      <stop offset="100%" stop-color="#22d3ee" stop-opacity="0"/>
    </radialGradient>
    <radialGradient id="dx-dot-halo" cx="0.5" cy="0.5" r="0.5">
      <stop offset="0%" stop-color="#22d3ee" stop-opacity="0.5"/>
      <stop offset="60%" stop-color="#22d3ee" stop-opacity="0.15"/>
      <stop offset="100%" stop-color="#22d3ee" stop-opacity="0"/>
    </radialGradient>
  </defs>

  <rect width="64" height="64" rx="14" fill="url(#dx-bg)"/>
  <rect width="64" height="64" rx="14" fill="url(#dx-glow-a)"/>
  <rect width="64" height="64" rx="14" fill="url(#dx-glow-b)"/>

  <path fill="url(#dx-mark)" fill-rule="evenodd"
        d="M 16 14 H 33 C 42.94 14 51 22.06 51 32 C 51 41.94 42.94 50 33 50 H 16 V 14 Z
           M 24.5 22.5 V 41.5 H 33 C 38.25 41.5 42.5 37.25 42.5 32 C 42.5 26.75 38.25 22.5 33 22.5 H 24.5 Z"/>

  <rect width="64" height="34" rx="14" fill="url(#dx-shine)"/>
  <rect x="0.5" y="0.5" width="63" height="63" rx="13.5"
        fill="none" stroke="#ffffff" stroke-opacity="0.1" stroke-width="1"/>

  <circle cx="48.5" cy="14.5" r="5" fill="url(#dx-dot-halo)"/>
  <circle cx="48.5" cy="14.5" r="2" fill="#22d3ee"/>
  <circle cx="48.5" cy="13.7" r="0.7" fill="#ffffff" opacity="0.7"/>
</svg>
